<svg width="822" height="234" viewBox="0 0 822 234" fill="none" xmlns="http://www.w3.org/2000/svg">
<g style="mix-blend-mode:exclusion">
<path d="M0.708544 125.253C-0.0268106 125.75 -0.221272 126.751 0.274205 127.488C0.769694 128.226 1.76748 128.421 2.50284 127.924L0.708544 125.253ZM208.184 -13.0296L209.089 -14.3603C208.546 -14.7316 207.832 -14.7335 207.287 -14.3652L208.184 -13.0296ZM394.442 114.352L393.537 115.682C394.147 116.1 394.961 116.046 395.511 115.552L394.442 114.352ZM504.302 15.8772V14.2667C503.908 14.2667 503.527 14.4127 503.233 14.6758L504.302 15.8772ZM682.41 15.8772V17.4876C682.694 17.4876 682.973 17.4114 683.218 17.2686L682.41 15.8772ZM873.834 -96L855.296 -95.9261L864.628 -79.8586L873.834 -96ZM2.50284 127.924L209.081 -11.694L207.287 -14.3652L0.708544 125.253L2.50284 127.924ZM207.28 -11.6991L393.537 115.682L395.346 113.022L209.089 -14.3603L207.28 -11.6991ZM395.511 115.552L505.372 17.0775L503.233 14.6758L393.372 113.151L395.511 115.552ZM504.302 17.4876H682.41V14.2667H504.302V17.4876ZM683.218 17.2686L862.158 -87.3117L860.541 -90.0946L681.602 14.4857L683.218 17.2686Z" fill="url(#paint0_linear_4818_11251)"/>
<path d="M0.708544 125.253C-0.0268106 125.75 -0.221272 126.751 0.274205 127.488C0.769694 128.226 1.76748 128.421 2.50284 127.924L0.708544 125.253ZM208.184 -13.0296L209.089 -14.3603C208.546 -14.7316 207.832 -14.7335 207.287 -14.3652L208.184 -13.0296ZM394.442 114.352L393.537 115.682C394.147 116.1 394.961 116.046 395.511 115.552L394.442 114.352ZM504.302 15.8772V14.2667C503.908 14.2667 503.527 14.4127 503.233 14.6758L504.302 15.8772ZM682.41 15.8772V17.4876C682.694 17.4876 682.973 17.4114 683.218 17.2686L682.41 15.8772ZM873.834 -96L855.296 -95.9261L864.628 -79.8586L873.834 -96ZM2.50284 127.924L209.081 -11.694L207.287 -14.3652L0.708544 125.253L2.50284 127.924ZM207.28 -11.6991L393.537 115.682L395.346 113.022L209.089 -14.3603L207.28 -11.6991ZM395.511 115.552L505.372 17.0775L503.233 14.6758L393.372 113.151L395.511 115.552ZM504.302 17.4876H682.41V14.2667H504.302V17.4876ZM683.218 17.2686L862.158 -87.3117L860.541 -90.0946L681.602 14.4857L683.218 17.2686Z" fill="url(#paint1_linear_4818_11251)"/>
<path d="M0.577283 231.153C-0.103698 231.723 -0.195363 232.738 0.372545 233.421C0.940454 234.104 1.95288 234.196 2.63386 233.627L0.577283 231.153ZM239.509 33.3812L239.867 31.8115C239.378 31.6999 238.866 31.8223 238.48 32.1444L239.509 33.3812ZM392.565 68.4397L392.208 70.0093C392.641 70.1092 393.097 70.0233 393.466 69.7731L392.565 68.4397ZM558.932 -44.4691L559.742 -45.8592C559.209 -46.1722 558.544 -46.1503 558.032 -45.803L558.932 -44.4691ZM715.316 47.3019L714.505 48.6912C714.859 48.8995 715.28 48.9639 715.679 48.8705L715.316 47.3019ZM890 6.62661L872.264 1.21108L876.457 19.3251L890 6.62661ZM2.63386 233.627L240.538 34.618L238.48 32.1444L0.577283 231.153L2.63386 233.627ZM239.152 34.9519L392.208 70.0093L392.923 66.87L239.867 31.8115L239.152 34.9519ZM393.466 69.7731L559.831 -43.1353L558.032 -45.803L391.666 67.1062L393.466 69.7731ZM558.12 -43.0791L714.505 48.6912L716.126 45.9116L559.742 -45.8592L558.12 -43.0791ZM715.679 48.8705L876.288 11.4726L875.561 8.3353L714.953 45.7334L715.679 48.8705Z" fill="#0F3F13"/>
<path d="M0.577283 231.153C-0.103698 231.723 -0.195363 232.738 0.372545 233.421C0.940454 234.104 1.95288 234.196 2.63386 233.627L0.577283 231.153ZM239.509 33.3812L239.867 31.8115C239.378 31.6999 238.866 31.8223 238.48 32.1444L239.509 33.3812ZM392.565 68.4397L392.208 70.0093C392.641 70.1092 393.097 70.0233 393.466 69.7731L392.565 68.4397ZM558.932 -44.4691L559.742 -45.8592C559.209 -46.1722 558.544 -46.1503 558.032 -45.803L558.932 -44.4691ZM715.316 47.3019L714.505 48.6912C714.859 48.8995 715.28 48.9639 715.679 48.8705L715.316 47.3019ZM890 6.62661L872.264 1.21108L876.457 19.3251L890 6.62661ZM2.63386 233.627L240.538 34.618L238.48 32.1444L0.577283 231.153L2.63386 233.627ZM239.152 34.9519L392.208 70.0093L392.923 66.87L239.867 31.8115L239.152 34.9519ZM393.466 69.7731L559.831 -43.1353L558.032 -45.803L391.666 67.1062L393.466 69.7731ZM558.12 -43.0791L714.505 48.6912L716.126 45.9116L559.742 -45.8592L558.12 -43.0791ZM715.679 48.8705L876.288 11.4726L875.561 8.3353L714.953 45.7334L715.679 48.8705Z" fill="url(#paint2_linear_4818_11251)"/>
<path d="M1.72106 179.807C0.836641 179.743 0.0679978 180.411 0.00422606 181.297C-0.059535 182.184 0.605733 182.956 1.49015 183.019L1.72106 179.807ZM240.83 198.714L240.714 200.32C240.926 200.335 241.139 200.308 241.34 200.241L240.83 198.714ZM386.779 149.618L386.868 148.009C386.665 147.999 386.461 148.025 386.269 148.091L386.779 149.618ZM586.019 160.6L585.932 162.208C586.157 162.22 586.384 162.185 586.596 162.103L586.019 160.6ZM720.376 108.737L720.951 110.24C721.199 110.144 721.417 109.99 721.59 109.79L720.376 108.737ZM841.834 -32.2437L824.323 -26.1381L838.35 -13.9791L841.834 -32.2437ZM1.49015 183.019L240.714 200.32L240.945 197.108L1.72106 179.807L1.49015 183.019ZM241.34 200.241L387.29 151.144L386.269 148.091L240.319 197.187L241.34 200.241ZM386.691 151.225L585.932 162.208L586.107 158.992L386.868 148.009L386.691 151.225ZM586.596 162.103L720.951 110.24L719.799 107.234L585.442 159.097L586.596 162.103ZM721.59 109.79L833.601 -20.2241L831.171 -22.3301L719.161 107.684L721.59 109.79Z" fill="#0C2D62"/>
<path d="M1.72106 179.807C0.836641 179.743 0.0679978 180.411 0.00422606 181.297C-0.059535 182.184 0.605733 182.956 1.49015 183.019L1.72106 179.807ZM240.83 198.714L240.714 200.32C240.926 200.335 241.139 200.308 241.34 200.241L240.83 198.714ZM386.779 149.618L386.868 148.009C386.665 147.999 386.461 148.025 386.269 148.091L386.779 149.618ZM586.019 160.6L585.932 162.208C586.157 162.22 586.384 162.185 586.596 162.103L586.019 160.6ZM720.376 108.737L720.951 110.24C721.199 110.144 721.417 109.99 721.59 109.79L720.376 108.737ZM841.834 -32.2437L824.323 -26.1381L838.35 -13.9791L841.834 -32.2437ZM1.49015 183.019L240.714 200.32L240.945 197.108L1.72106 179.807L1.49015 183.019ZM241.34 200.241L387.29 151.144L386.269 148.091L240.319 197.187L241.34 200.241ZM386.691 151.225L585.932 162.208L586.107 158.992L386.868 148.009L386.691 151.225ZM586.596 162.103L720.951 110.24L719.799 107.234L585.442 159.097L586.596 162.103ZM721.59 109.79L833.601 -20.2241L831.171 -22.3301L719.161 107.684L721.59 109.79Z" fill="url(#paint3_linear_4818_11251)"/>
</g>
<defs>
<linearGradient id="paint0_linear_4818_11251" x1="437.721" y1="-76.7712" x2="437.721" y2="126.588" gradientUnits="userSpaceOnUse">
<stop stop-color="#5C5393"/>
<stop offset="1" stop-color="#8C3C8F"/>
</linearGradient>
<linearGradient id="paint1_linear_4818_11251" x1="-0.0190973" y1="128.365" x2="584.695" y2="128.365" gradientUnits="userSpaceOnUse">
<stop/>
<stop offset="1" stop-opacity="0"/>
</linearGradient>
<linearGradient id="paint2_linear_4818_11251" x1="-0.0194506" y1="234.208" x2="595.512" y2="234.208" gradientUnits="userSpaceOnUse">
<stop/>
<stop offset="1" stop-opacity="0"/>
</linearGradient>
<linearGradient id="paint3_linear_4818_11251" x1="-0.018398" y1="200.496" x2="563.283" y2="200.496" gradientUnits="userSpaceOnUse">
<stop/>
<stop offset="1" stop-opacity="0"/>
</linearGradient>
</defs>
</svg>
