<?xml version="1.0" encoding="utf-8"?>
<!-- Generator: Adobe Illustrator 20.0.0, SVG Export Plug-In . SVG Version: 6.00 Build 0)  -->
<svg version="1.1" id="Layer_1" xmlns="http://www.w3.org/2000/svg" xmlns:xlink="http://www.w3.org/1999/xlink" x="0px" y="0px"
	 viewBox="0 0 24 24" style="enable-background:new 0 0 24 24;" xml:space="preserve">
<style type="text/css">
	.st0{fill:#555555;}
</style>
<g>
	<path class="st0" d="M12.458,19.325c-0.022,0-0.043,0.006-0.065,0.007l-1.202-4.72c0.423-0.189,0.786-0.479,1.078-0.832
		l0.481,0.277c0.078,0.045,0.164,0.066,0.249,0.066c0.173,0,0.341-0.09,0.434-0.251c0.138-0.239,0.055-0.545-0.185-0.683
		l-0.48-0.276c0.116-0.318,0.19-0.657,0.19-1.015c0-0.666-0.228-1.274-0.598-1.771l5.306-5.623c0.351,0.22,0.763,0.353,1.207,0.353
		c1.261,0,2.286-1.025,2.286-2.286s-1.025-2.286-2.286-2.286s-2.286,1.025-2.286,2.286c0,0.454,0.137,0.876,0.366,1.232L11.642,9.43
		c-0.474-0.32-1.045-0.507-1.658-0.507c-0.331,0-0.644,0.067-0.942,0.167L8.774,8.601C8.642,8.359,8.337,8.27,8.095,8.402
		C7.853,8.534,7.764,8.838,7.896,9.08l0.265,0.486c-0.695,0.545-1.151,1.382-1.151,2.332c0,0.354,0.073,0.69,0.187,1.005
		l-1.369,0.829c-0.012,0.007-0.019,0.019-0.03,0.027c-0.012,0.006-0.026,0.006-0.038,0.014L4.429,14.58
		c-0.31-0.297-0.727-0.481-1.189-0.481c-0.95,0-1.724,0.773-1.724,1.724s0.773,1.724,1.724,1.724s1.724-0.773,1.724-1.724
		c0-0.128-0.016-0.251-0.043-0.371l1.358-0.822c0.014-0.008,0.022-0.022,0.034-0.032c0.011-0.005,0.023-0.003,0.034-0.009
		l1.348-0.815c0.546,0.666,1.364,1.101,2.29,1.101c0.081,0,0.157-0.018,0.236-0.024l1.206,4.734
		c-0.74,0.379-1.253,1.141-1.253,2.028c0,1.261,1.025,2.286,2.286,2.286s2.286-1.025,2.286-2.286S13.719,19.325,12.458,19.325z
		 M3.24,16.546c-0.399,0-0.724-0.324-0.724-0.724s0.325-0.724,0.724-0.724s0.724,0.324,0.724,0.724
		C3.964,16.222,3.639,16.546,3.24,16.546z M18.873,1.285c0.709,0,1.286,0.577,1.286,1.286s-0.577,1.286-1.286,1.286
		c-0.339,0-0.642-0.138-0.872-0.352c-0.013-0.015-0.019-0.034-0.034-0.048c-0.01-0.009-0.022-0.012-0.032-0.02
		c-0.212-0.229-0.348-0.53-0.348-0.865C17.587,1.863,18.164,1.285,18.873,1.285z M8.011,11.898c0-1.088,0.885-1.974,1.974-1.974
		s1.974,0.886,1.974,1.974c0,1.089-0.886,1.975-1.974,1.975S8.011,12.987,8.011,11.898z M12.458,22.897
		c-0.709,0-1.286-0.577-1.286-1.286s0.577-1.286,1.286-1.286c0.708,0,1.286,0.577,1.286,1.286S13.167,22.897,12.458,22.897z"/>
	<path class="st0" d="M20.758,16.325c-0.466,0-0.888,0.188-1.198,0.489l-0.489-0.281c-0.237-0.138-0.545-0.057-0.683,0.185
		c-0.138,0.239-0.055,0.545,0.185,0.683l0.501,0.288c-0.025,0.117-0.039,0.237-0.039,0.361c0,0.95,0.773,1.724,1.724,1.724
		s1.724-0.773,1.724-1.724S21.708,16.325,20.758,16.325z M20.758,18.772c-0.399,0-0.724-0.324-0.724-0.724s0.324-0.724,0.724-0.724
		s0.724,0.324,0.724,0.724S21.157,18.772,20.758,18.772z"/>
	<path class="st0" d="M4.663,3.705c0.096,0,0.189-0.013,0.28-0.028L5.229,4.2C5.32,4.366,5.491,4.46,5.668,4.46
		c0.081,0,0.163-0.02,0.239-0.061C6.149,4.267,6.239,3.963,6.106,3.72L5.84,3.233c0.334-0.315,0.546-0.758,0.546-1.252
		c0-0.95-0.773-1.724-1.724-1.724S2.939,1.031,2.939,1.982S3.712,3.705,4.663,3.705z M4.663,1.258c0.399,0,0.724,0.325,0.724,0.724
		c0,0.295-0.179,0.547-0.432,0.66c-0.003,0.001-0.005,0-0.007,0.001C4.946,2.645,4.944,2.647,4.942,2.649
		c-0.086,0.036-0.18,0.056-0.279,0.056c-0.399,0-0.724-0.325-0.724-0.724S4.264,1.258,4.663,1.258z"/>
	<path class="st0" d="M6.118,5.826l0.889,1.627c0.091,0.166,0.263,0.26,0.439,0.26c0.081,0,0.163-0.02,0.239-0.061
		c0.243-0.132,0.332-0.436,0.2-0.678L6.996,5.347C6.863,5.105,6.56,5.016,6.317,5.148C6.075,5.281,5.985,5.584,6.118,5.826z"/>
	<path class="st0" d="M17.13,15.418l-1.94-1.114c-0.237-0.137-0.544-0.057-0.683,0.185c-0.138,0.239-0.055,0.545,0.185,0.683
		l1.94,1.114c0.078,0.045,0.164,0.066,0.249,0.066c0.173,0,0.341-0.09,0.434-0.251C17.452,15.861,17.369,15.555,17.13,15.418z"/>
</g>
</svg>
