<?xml version="1.0" encoding="utf-8"?>
<!-- Generator: Adobe Illustrator 20.0.0, SVG Export Plug-In . SVG Version: 6.00 Build 0)  -->
<svg version="1.1" id="Layer_1" xmlns="http://www.w3.org/2000/svg" xmlns:xlink="http://www.w3.org/1999/xlink" x="0px" y="0px"
	 viewBox="0 0 24 24" style="enable-background:new 0 0 24 24;" xml:space="preserve">
<style type="text/css">
	.st0{fill:#555555;}
</style>
<g>
	<path class="st0" d="M11.986,0.173c-4.876,0-8.843,3.967-8.843,8.843c0,4.109,2.85,7.68,6.821,8.607l1.539,5.833
		c0.058,0.219,0.256,0.372,0.483,0.372s0.426-0.153,0.483-0.372l1.538-5.833c3.972-0.929,6.821-4.5,6.821-8.607
		C20.829,4.139,16.862,0.173,11.986,0.173z M13.506,16.709c-0.188,0.036-0.338,0.178-0.387,0.362l-1.133,4.296l-1.133-4.296
		c-0.049-0.185-0.199-0.326-0.387-0.362c-3.663-0.72-6.322-3.955-6.322-7.693c0-4.325,3.518-7.843,7.843-7.843
		c4.324,0,7.843,3.518,7.843,7.843C19.829,12.753,17.17,15.988,13.506,16.709z"/>
	<path class="st0" d="M14.763,6.906c-0.319-0.003-0.677-0.006-1.072-0.013L13.392,6.03c-0.631-1.84-0.821-2.396-1.407-2.396h-0.001
		c-0.581,0.001-0.757,0.523-1.343,2.254c-0.102,0.3-0.215,0.635-0.343,1.004l-0.89,0.014C7.361,6.933,6.812,6.941,6.632,7.502
		c-0.177,0.554,0.271,0.882,1.755,1.97c0.256,0.188,0.542,0.397,0.856,0.631c-0.116,0.373-0.223,0.709-0.319,1.01
		c-0.554,1.74-0.721,2.265-0.253,2.609c0.121,0.089,0.239,0.135,0.377,0.135c0.402,0,0.965-0.394,2.201-1.258l0.744-0.517
		l0.744,0.517c1.659,1.161,2.107,1.472,2.578,1.124c0.468-0.345,0.3-0.87-0.254-2.609c-0.096-0.301-0.203-0.637-0.318-1.009
		l0.7-0.521c1.643-1.215,2.084-1.542,1.902-2.102C17.165,6.927,16.608,6.923,14.763,6.906z M14.848,8.78L13.86,9.514
		c-0.169,0.126-0.24,0.345-0.179,0.546c0.157,0.513,0.301,0.964,0.426,1.356c0.136,0.424,0.267,0.835,0.356,1.153
		c-0.313-0.203-0.728-0.492-1.154-0.791l-1.033-0.718c-0.171-0.118-0.396-0.118-0.567,0l-1.033,0.718
		c-0.427,0.299-0.841,0.588-1.155,0.791c0.09-0.318,0.221-0.73,0.356-1.154c0.125-0.392,0.269-0.843,0.425-1.356
		c0.062-0.202-0.01-0.42-0.178-0.546C9.694,9.191,9.311,8.91,8.978,8.666C8.617,8.401,8.266,8.144,8.003,7.939
		c0.378-0.019,0.89-0.026,1.418-0.033l1.243-0.02c0.208-0.004,0.393-0.138,0.461-0.334c0.178-0.506,0.33-0.954,0.461-1.344
		c0.144-0.425,0.284-0.838,0.401-1.149c0.131,0.342,0.292,0.811,0.458,1.294l0.415,1.199c0.069,0.196,0.253,0.33,0.462,0.334
		c0.54,0.011,1.017,0.015,1.432,0.019c0.451,0.004,0.889,0.008,1.223,0.022C15.682,8.163,15.271,8.466,14.848,8.78z"/>
</g>
</svg>
